<?xml version="1.0" encoding="UTF-8" standalone="no"?>
<!-- Created with Inkscape (http://www.inkscape.org/) -->

<svg
   width="297mm"
   height="210mm"
   viewBox="0 0 297 210"
   version="1.1"
   id="svg5"
   inkscape:version="1.1 (c68e22c387, 2021-05-23)"
   sodipodi:docname="dibujopez.svg"
   xmlns:inkscape="http://www.inkscape.org/namespaces/inkscape"
   xmlns:sodipodi="http://sodipodi.sourceforge.net/DTD/sodipodi-0.dtd"
   xmlns="http://www.w3.org/2000/svg"
   xmlns:svg="http://www.w3.org/2000/svg">
  <sodipodi:namedview
     id="namedview7"
     pagecolor="#ffffff"
     bordercolor="#666666"
     borderopacity="1.0"
     inkscape:pageshadow="2"
     inkscape:pageopacity="0.0"
     inkscape:pagecheckerboard="0"
     inkscape:document-units="mm"
     showgrid="false"
     inkscape:zoom="0.47433592"
     inkscape:cx="-153.89937"
     inkscape:cy="363.66632"
     inkscape:window-width="1920"
     inkscape:window-height="1017"
     inkscape:window-x="-8"
     inkscape:window-y="-8"
     inkscape:window-maximized="1"
     inkscape:current-layer="layer1" />
  <defs
     id="defs2" />
  <g
     inkscape:label="Capa 1"
     inkscape:groupmode="layer"
     id="layer1">
    <path
       style="fill:#c8b7b7;stroke:#000000;stroke-width:0.182555px;stroke-linecap:butt;stroke-linejoin:miter;stroke-opacity:1"
       d="m 91.520279,106.38288 c -0.265523,2.23679 -2.518966,3.85845 -4.348489,5.17243 -2.927702,2.10271 -6.469135,3.71954 -10.066295,3.95033 -5.864089,0.37623 -11.686369,-2.00127 -17.098476,-4.28998 -3.567527,-1.50866 -6.169589,-5.00517 -9.88011,-6.11663 -4.142364,-1.24081 -8.732062,-1.23082 -12.96764,-0.3598 -1.258872,0.25888 -3.240621,0.36018 -3.49921,1.61911 -0.454281,2.21165 3.674509,2.94709 4.52839,5.03723 1.793314,4.38968 1.448368,9.54368 0.6175,14.21219 -0.717396,4.03093 -3.49578,7.4313 -4.734218,11.33377 -0.668965,2.10799 -2.326778,4.45004 -1.44085,6.47644 0.57258,1.30967 3.10335,0.86225 3.705038,2.15881 0.999612,2.15403 0.195494,5.1207 -1.235009,7.01615 -1.240555,1.64377 -3.885796,1.49596 -5.557564,2.69851 -2.386446,1.71664 -6.288032,3.35899 -6.175069,6.29654 0.07353,1.9122 2.593906,2.95714 4.322549,3.77793 2.263268,1.07465 4.914088,1.47668 7.410084,1.25931 5.877128,-0.51183 11.579411,-2.95998 16.672689,-5.93674 7.989584,-4.66951 13.32642,-12.97046 20.949643,-18.21681 4.950745,-3.40713 9.998878,-7.39602 15.909812,-8.48197 5.453179,-1.00186 10.967241,1.74683 16.500616,2.09704 2.1912,0.13868 4.52484,-0.75441 6.58674,0 2.53058,0.9259 3.98232,3.65094 6.17507,5.21713 1.23603,0.88284 3.91548,0.81979 3.91087,2.33872 -0.01,3.17265 -4.43075,4.48459 -8.66579,5.56018 -4.15927,1.05635 -5.77253,3.36381 -7.58415,4.02388 -0.74246,1.3195 4.50409,-0.0443 5.54649,1.56981 0.75654,1.17147 -0.1053,2.84069 -0.61751,4.13773 -1.68601,4.2694 -7.46566,10.24904 -7.82175,11.33377 2.13514,0.0133 8.2564,-1.38247 11.93847,-3.23823 7.34092,-3.69981 11.89085,-11.8332 19.34855,-15.29159 6.85863,-3.18058 16.58846,-9.53013 22.23025,-4.49753 1.79659,1.6026 0.6409,5.14362 -0.61751,7.19605 -2.19613,3.58181 -8.87498,2.87362 -10.70345,6.65634 -0.52536,1.08685 0.97966,2.53283 0.41167,3.59802 -1.88728,3.53938 -6.76445,5.84309 -8.1637,8.95461 2.11353,-0.34326 6.49561,-0.73667 9.96194,-3.45271 3.70595,-2.9038 6.52473,-8.06353 9.52272,-5.8617 1.17178,0.86059 -0.0246,2.99017 -0.61751,4.31762 -0.95775,2.14421 -4.52838,5.39704 -4.52838,5.39704 -3.3616,1.58485 4.54104,-0.20467 6.58674,-1.07941 2.29068,-0.97949 4.27384,-2.67207 5.96923,-4.49752 1.55296,-1.6721 2.80775,-3.65863 3.70505,-5.75684 1.38246,-3.23269 2.36082,-6.74018 2.47003,-10.25437 0.0984,-3.1647 -3.31924,-6.66644 -1.64669,-9.35485 4.86985,-7.82769 17.79439,-4.85855 26.5528,-7.73575 8.60871,-2.82802 17.92658,-4.41597 25.52362,-9.35486 7.27772,-4.7313 17.46995,-10.05315 18.11354,-18.70972 0.17491,-2.35261 -2.44857,-4.0887 -4.11671,-5.75684 -2.62435,-2.624342 -6.39228,-3.892873 -9.05678,-6.476439 -5.84784,-5.670203 -8.06823,-14.873017 -14.82016,-19.42932 -8.25725,-5.57212 -18.96605,-6.435874 -28.81699,-7.91565 -7.87425,-1.182844 -16.83721,3.001295 -23.87694,-0.7196 -13.25157,-7.0042 -26.43579,-36.37465 -26.43579,-36.37465 0,0 5.40653,15.338696 0.0888,18.38454 -7.75271,4.440527 -14.59313,-10.801371 -23.05359,-13.672491 -4.66273,-1.582333 -14.667231,-1.753882 -14.667231,-1.753882 0,0 11.656041,3.621201 8.642371,10.585271 -2.06046,4.761389 -8.388747,-0.909536 -6.059074,0.99656 0,0 1.743218,4.997313 0.236593,6.604415 -2.182528,2.32808 -8.853438,1.556699 -9.569481,0.274791 -1.815231,3.132091 4.904725,5.811665 3.456085,8.508367 -1.635139,3.043878 -10.161129,2.049702 -10.161129,2.049702 0,0 5.304009,4.926117 6.636042,8.172666 0.407112,0.992247 0.741285,2.220268 0.310625,3.202524 -1.006217,2.294996 -5.995107,4.535857 -5.995107,4.535857 1.890698,3.814311 16.989389,2.833109 15.64351,8.63526 -1.117583,4.817956 -13.297045,1.89018 -14.82017,0.7196 -3.484255,5.949981 10.047186,11.662619 9.234395,18.509639 z"
       id="path3570"
       sodipodi:nodetypes="aaaaaaaaaaaaaaaaaaaaaaasscaacaaaaascssacaaaaaaaaaaaaacaacscacacaaccca"
       inkscape:export-filename="C:\Users\Usuario\Desktop\pezGris.png"
       inkscape:export-xdpi="96"
       inkscape:export-ydpi="96" />
    <path
       style="fill:none;stroke:none;stroke-width:0.264583px;stroke-linecap:butt;stroke-linejoin:miter;stroke-opacity:1"
       d="m 168.53105,143.10289 c 0,0 -3.37067,2.47147 -5.31444,3.15307 -2.23468,0.78362 -7.0357,0.98465 -7.0357,0.98465"
       id="path4125"
       sodipodi:nodetypes="cac"
       inkscape:export-filename="C:\Users\Usuario\Desktop\pezGris.png"
       inkscape:export-xdpi="96"
       inkscape:export-ydpi="96" />
  </g>
</svg>
